<svg width="0.73" height="0.676" viewBox="0 0 0.73 0.676" xmlns="http://www.w3.org/2000/svg"><g id="svgGroup" stroke-linecap="round" fill-rule="evenodd" font-size="9pt" stroke="#ffffff" stroke-width="0.25mm" fill="#ffffff" style="stroke:#ffffff;stroke-width:0.25mm;fill:#ffffff"><path d="M 0.58 0.056 L 0.603 0.037 A 0.366 0.366 0 0 1 0.617 0.027 Q 0.629 0.017 0.639 0.013 A 0.087 0.087 0 0 1 0.642 0.011 A 0.078 0.078 0 0 1 0.664 0.005 A 0.101 0.101 0 0 1 0.678 0.004 A 0.089 0.089 0 0 1 0.693 0.005 Q 0.702 0.007 0.708 0.01 A 0.045 0.045 0 0 1 0.716 0.015 A 0.034 0.034 0 0 1 0.73 0.038 A 0.051 0.051 0 0 1 0.73 0.045 A 0.049 0.049 0 0 1 0.729 0.055 A 0.063 0.063 0 0 1 0.727 0.062 L 0.685 0.2 Q 0.679 0.222 0.669 0.232 A 0.036 0.036 0 0 1 0.667 0.234 A 0.033 0.033 0 0 1 0.655 0.241 Q 0.647 0.244 0.636 0.244 Q 0.614 0.244 0.597 0.231 Q 0.581 0.217 0.546 0.175 Q 0.511 0.135 0.482 0.119 A 0.124 0.124 0 0 0 0.449 0.105 A 0.108 0.108 0 0 0 0.424 0.102 Q 0.402 0.102 0.387 0.117 A 0.047 0.047 0 0 0 0.372 0.151 A 0.057 0.057 0 0 0 0.372 0.152 Q 0.372 0.174 0.392 0.193 A 0.103 0.103 0 0 0 0.396 0.197 A 0.294 0.294 0 0 0 0.412 0.209 Q 0.429 0.222 0.455 0.238 A 1.246 1.246 0 0 0 0.471 0.248 A 1.51 1.51 0 0 1 0.507 0.27 Q 0.522 0.279 0.534 0.288 A 0.742 0.742 0 0 1 0.557 0.304 Q 0.591 0.329 0.615 0.366 Q 0.639 0.403 0.639 0.451 Q 0.639 0.482 0.629 0.513 Q 0.605 0.593 0.536 0.635 A 0.289 0.289 0 0 1 0.425 0.673 A 0.369 0.369 0 0 1 0.375 0.676 Q 0.322 0.676 0.282 0.667 A 0.248 0.248 0 0 1 0.259 0.66 A 0.285 0.285 0 0 1 0.21 0.638 Q 0.187 0.624 0.163 0.606 L 0.127 0.636 A 0.38 0.38 0 0 1 0.114 0.647 Q 0.1 0.657 0.09 0.662 A 0.087 0.087 0 0 1 0.086 0.665 A 0.079 0.079 0 0 1 0.061 0.671 A 0.098 0.098 0 0 1 0.05 0.672 Q 0.032 0.672 0.02 0.665 A 0.043 0.043 0 0 1 0.013 0.661 Q 0 0.65 0 0.631 A 0.056 0.056 0 0 1 0.002 0.618 A 0.072 0.072 0 0 1 0.004 0.61 L 0.053 0.461 A 0.117 0.117 0 0 1 0.059 0.446 Q 0.065 0.432 0.075 0.424 A 0.05 0.05 0 0 1 0.095 0.415 A 0.072 0.072 0 0 1 0.111 0.413 A 0.061 0.061 0 0 1 0.151 0.428 A 0.078 0.078 0 0 1 0.152 0.429 Q 0.167 0.441 0.188 0.469 A 0.766 0.766 0 0 1 0.201 0.487 A 0.412 0.412 0 0 0 0.22 0.512 Q 0.239 0.536 0.256 0.548 A 0.11 0.11 0 0 0 0.261 0.551 Q 0.288 0.569 0.326 0.569 Q 0.343 0.569 0.355 0.566 A 0.053 0.053 0 0 0 0.367 0.561 A 0.043 0.043 0 0 0 0.384 0.543 A 0.06 0.06 0 0 0 0.388 0.533 A 0.022 0.022 0 0 0 0.389 0.529 Q 0.39 0.526 0.39 0.52 A 0.092 0.092 0 0 0 0.39 0.518 Q 0.39 0.495 0.368 0.475 A 0.103 0.103 0 0 0 0.367 0.474 Q 0.344 0.454 0.296 0.426 A 1.369 1.369 0 0 1 0.261 0.404 Q 0.245 0.394 0.232 0.385 A 0.614 0.614 0 0 1 0.213 0.371 A 0.23 0.23 0 0 1 0.165 0.321 A 0.268 0.268 0 0 1 0.158 0.309 A 0.15 0.15 0 0 1 0.136 0.248 A 0.193 0.193 0 0 1 0.134 0.222 Q 0.134 0.187 0.145 0.153 A 0.196 0.196 0 0 1 0.223 0.048 A 0.25 0.25 0 0 1 0.231 0.042 A 0.263 0.263 0 0 1 0.359 0.001 A 0.322 0.322 0 0 1 0.38 0 A 0.407 0.407 0 0 1 0.445 0.005 A 0.338 0.338 0 0 1 0.484 0.014 A 0.379 0.379 0 0 1 0.543 0.036 A 0.472 0.472 0 0 1 0.58 0.056 Z" vector-effect="non-scaling-stroke"/></g></svg>